HIERARCHY
ROOT hip
{
  OFFSET 0 0 0
  CHANNELS 6 Xposition Yposition Zposition Zrotation Yrotation Xrotation
  JOINT abdomen
  {
    OFFSET 0 20.6881 -0.73152
    CHANNELS 3 Zrotation Xrotation Yrotation
    JOINT chest
    {
      OFFSET 0 11.7043 -0.48768
      CHANNELS 3 Zrotation Xrotation Yrotation
      JOINT neck
      {
        OFFSET 0 22.1894 -2.19456
        CHANNELS 3 Zrotation Xrotation Yrotation
        JOINT head
        {
          OFFSET -0.24384 7.07133 1.2192
          CHANNELS 3 Zrotation Xrotation Yrotation
          JOINT leftEye
          {
            OFFSET 4.14528 8.04674 8.04672
            CHANNELS 3 Zrotation Xrotation Yrotation
            End Site
            {
              OFFSET 1 0 0
            }
          }
          JOINT rightEye
          {
            OFFSET -3.6576 8.04674 8.04672
            CHANNELS 3 Zrotation Xrotation Yrotation
            End Site
            {
              OFFSET 1 0 0
            }
          }
        }
      }
      JOINT rCollar
      {
        OFFSET -2.68224 19.2634 -4.8768
        CHANNELS 3 Zrotation Xrotation Yrotation
        JOINT rShldr
        {
          OFFSET -8.77824 -1.95073 1.46304
          CHANNELS 3 Zrotation Xrotation Yrotation
          JOINT rForeArm
          {
            OFFSET -28.1742 -1.7115 0.48768
            CHANNELS 3 Zrotation Xrotation Yrotation
            JOINT rHand
            {
              OFFSET -22.5879 0.773209 7.07136
              CHANNELS 3 Zrotation Xrotation Yrotation
              JOINT rThumb1
              {
                OFFSET -1.2192 -0.487915 3.41376
                CHANNELS 3 Zrotation Xrotation Yrotation
                JOINT rThumb2
                {
                  OFFSET -3.37035 -0.52449 3.41376
                  CHANNELS 3 Zrotation Xrotation Yrotation
                  End Site
                  {
                    OFFSET -1.78271 -1.18214 1.43049
                  }
                }
              }
              JOINT rIndex1
              {
                OFFSET -7.75947 0.938293 5.60832
                CHANNELS 3 Zrotation Xrotation Yrotation
                JOINT rIndex2
                {
                  OFFSET -2.54057 -0.884171 1.56538
                  CHANNELS 3 Zrotation Xrotation Yrotation
                  End Site
                  {
                    OFFSET -1.62519 -0.234802 1.16502
                  }
                }
              }
              JOINT rMid1
              {
                OFFSET -8.24714 1.18213 3.41376
                CHANNELS 3 Zrotation Xrotation Yrotation
                JOINT rMid2
                {
                  OFFSET -3.10165 -0.590103 1.0647
                  CHANNELS 3 Zrotation Xrotation Yrotation
                  End Site
                  {
                    OFFSET -2.48547 -0.328903 0.83742
                  }
                }
              }
              JOINT rRing1
              {
                OFFSET -8.82822 0.546677 1.51678
                CHANNELS 3 Zrotation Xrotation Yrotation
                JOINT rRing2
                {
                  OFFSET -2.60934 -0.819778 -0.0198488
                  CHANNELS 3 Zrotation Xrotation Yrotation
                  End Site
                  {
                    OFFSET -2.33842 -0.294052 0.168128
                  }
                }
              }
              JOINT rPinky1
              {
                OFFSET -8.27202 -0.0477905 -0.4584
                CHANNELS 3 Zrotation Xrotation Yrotation
                JOINT rPinky2
                {
                  OFFSET -1.82734 -0.647385 -0.700984
                  CHANNELS 3 Zrotation Xrotation Yrotation
                  End Site
                  {
                    OFFSET -1.69225 -0.51767 -0.607171
                  }
                }
              }
            }
          }
        }
      }
      JOINT lCollar
      {
        OFFSET 2.68224 19.2634 -4.8768
        CHANNELS 3 Zrotation Xrotation Yrotation
        JOINT lShldr
        {
          OFFSET 8.77824 -1.95073 1.46304
          CHANNELS 3 Zrotation Xrotation Yrotation
          JOINT lForeArm
          {
            OFFSET 28.1742 -1.7115 0.48768
            CHANNELS 3 Zrotation Xrotation Yrotation
            JOINT lHand
            {
              OFFSET 22.5879 0.773209 7.07136
              CHANNELS 3 Zrotation Xrotation Yrotation
              JOINT lThumb1
              {
                OFFSET 1.2192 -0.487915 3.41376
                CHANNELS 3 Zrotation Xrotation Yrotation
                JOINT lThumb2
                {
                  OFFSET 3.37035 -0.52449 3.41376
                  CHANNELS 3 Zrotation Xrotation Yrotation
                  End Site
                  {
                    OFFSET 1.78271 -1.18214 1.43049
                  }
                }
              }
              JOINT lIndex1
              {
                OFFSET 7.75947 0.938293 5.60832
                CHANNELS 3 Zrotation Xrotation Yrotation
                JOINT lIndex2
                {
                  OFFSET 2.54057 -0.884171 1.56538
                  CHANNELS 3 Zrotation Xrotation Yrotation
                  End Site
                  {
                    OFFSET 1.62519 -0.234802 1.16502
                  }
                }
              }
              JOINT lMid1
              {
                OFFSET 8.24714 1.18213 3.41376
                CHANNELS 3 Zrotation Xrotation Yrotation
                JOINT lMid2
                {
                  OFFSET 3.10165 -0.590103 1.0647
                  CHANNELS 3 Zrotation Xrotation Yrotation
                  End Site
                  {
                    OFFSET 2.48547 -0.328903 0.83742
                  }
                }
              }
              JOINT lRing1
              {
                OFFSET 8.82822 0.546677 1.51678
                CHANNELS 3 Zrotation Xrotation Yrotation
                JOINT lRing2
                {
                  OFFSET 2.60934 -0.819778 -0.0198488
                  CHANNELS 3 Zrotation Xrotation Yrotation
                  End Site
                  {
                    OFFSET 2.33842 -0.294052 0.168128
                  }
                }
              }
              JOINT lPinky1
              {
                OFFSET 8.27202 -0.0477905 -0.4584
                CHANNELS 3 Zrotation Xrotation Yrotation
                JOINT lPinky2
                {
                  OFFSET 1.82734 -0.647385 -0.700984
                  CHANNELS 3 Zrotation Xrotation Yrotation
                  End Site
                  {
                    OFFSET 1.69225 -0.51767 -0.607171
                  }
                }
              }
            }
          }
        }
      }
    }
  }
  JOINT rButtock
  {
    OFFSET -8.77824 4.35084 1.2192
    CHANNELS 3 Zrotation Xrotation Yrotation
    JOINT rThigh
    {
      OFFSET 0 -1.70687 -2.19456
      CHANNELS 3 Zrotation Xrotation Yrotation
      JOINT rShin
      {
        OFFSET 0 -36.8199 0.73152
        CHANNELS 3 Zrotation Xrotation Yrotation
        JOINT rFoot
        {
          OFFSET 0.73152 -45.1104 -5.12064
          CHANNELS 3 Zrotation Xrotation Yrotation
          End Site
          {
            OFFSET -1.1221 -3.69964 12.103
          }
        }
      }
    }
  }
  JOINT lButtock
  {
    OFFSET 8.77824 4.35084 1.2192
    CHANNELS 3 Zrotation Xrotation Yrotation
    JOINT lThigh
    {
      OFFSET 0 -1.70687 -2.19456
      CHANNELS 3 Zrotation Xrotation Yrotation
      JOINT lShin
      {
        OFFSET 0 -36.8199 0.73152
        CHANNELS 3 Zrotation Xrotation Yrotation
        JOINT lFoot
        {
          OFFSET -0.73152 -45.1104 -5.12064
          CHANNELS 3 Zrotation Xrotation Yrotation
          End Site
          {
            OFFSET 1.1221 -3.69964 12.103
          }
        }
      }
    }
  }
}
MOTION
Frames:	4
Frame Time:	0.03333
-0.07786496552306792 43.615723398058016 2.0569184871690216 -2.262099504470825 2.5529000759124756 2.4595999717712402 -3.070580005645752 4.7681498527526855 3.2544398307800293 2.48006010055542 -5.9495697021484375 0.9641109108924866 -5.703480243682861 9.520380973815918 -4.468810558319092 7.026120185852051 -11.055699348449707 -7.39833927154541 -0.0 0.0 -0.0 -0.0 0.0 -0.0 1.2722218027325094e-14 3.816665408197528e-14 -4.452776309563783e-14 46.15950012207031 40.10770034790039 51.77499771118164 -18.75870132446289 -11.526399612426758 35.74539566040039 -0.6271750330924988 -21.9064998626709 -3.2398202419281006 -3.4095545831114293e-11 -1.8754839903323273e-09 3.4659775050016606e-10 -6.698247512204603e-11 -3.240234525136998e-09 6.005650421414543e-10 -3.4095545831114293e-11 -1.8754839903323273e-09 3.465913944733501e-10 7.7309088706970215 5.474880218505859 0.41731396317481995 -3.4095545831114293e-11 -1.8754839903323273e-09 3.4659775050016606e-10 2.9055399894714355 0.9651829600334167 0.10290198773145676 -3.4095545831114293e-11 -1.8754839903323273e-09 3.4659775050016606e-10 10.27859878540039 0.73180091381073 0.025912299752235413 -3.4095545831114293e-11 -1.875496646874808e-09 3.4660410652698204e-10 2.2216696739196777 -0.7334870100021362 -0.2089199721813202 1.2722218027325094e-14 3.816665408197528e-14 -4.452776309563783e-14 -52.782997131347656 46.68989562988281 -59.52009582519531 17.035797119140625 -9.685149192810059 -31.890596389770508 1.011520266532898 -27.31100082397461 4.161769866943359 -3.7198494284851336e-10 -6.048269662883854e-10 1.5795269259211153e-10 -6.434262012078307e-10 -1.0738315792124808e-09 2.64870209099044e-10 -3.719976549021453e-10 -6.048396783420174e-10 1.5795906249671532e-10 -7.7309088706970215 5.474880218505859 -0.41731396317481995 -3.7198494284851336e-10 -6.048396783420174e-10 1.5795269259211153e-10 -2.9055399894714355 0.9651829600334167 -0.10290198773145676 -3.719976549021453e-10 -6.048396783420174e-10 1.5795269259211153e-10 -10.27859878540039 0.73180091381073 -0.025912299752235413 -3.7198494284851336e-10 -6.048269662883854e-10 1.5793998053847957e-10 -2.2216696739196777 -0.7334870100021362 0.2089199721813202 -0.0 0.0 -0.0 4.043608665466309 -34.465599060058594 -2.1424100399017334 -1.1900701522827148 62.17949676513672 1.7703698873519897 -0.24702295660972595 -25.497398376464844 -0.3086559772491455 -0.0 0.0 -0.0 -5.179469585418701 -34.942195892333984 -0.3222089409828186 1.1881799697875977 62.742496490478516 -1.8976099491119385 5.391709804534912 -25.23019790649414 9.469179153442383
-0.07368237345330099 43.583064848541596 2.070096516749448 -2.256899833679199 2.5597000122070312 2.4377999305725098 -3.096640110015869 4.823190212249756 3.246659755706787 2.4769299030303955 -5.966639518737793 0.9595229625701904 -5.707770347595215 9.530110359191895 -4.460879802703857 7.03292989730835 -11.059099197387695 -7.382920265197754 -0.0 0.0 -0.0 -0.0 0.0 -0.0 7.633330816395056e-14 0.0 -3.1805545068312735e-14 46.18979263305664 40.11179733276367 51.763099670410156 -18.750301361083984 -11.516799926757812 35.72599792480469 -0.6251339912414551 -21.87299919128418 -3.2343599796295166 -5.60426427487215e-10 -1.7184917933121824e-09 4.636421524484291e-10 -9.786184085314176e-10 -2.931122677907183e-09 7.943243840458081e-10 -5.60426427487215e-10 -1.7184917933121824e-09 4.636421524484291e-10 7.7309088706970215 5.474880218505859 0.41731396317481995 -5.60439139540847e-10 -1.7184790257473992e-09 4.636421524484291e-10 2.9055399894714355 0.9651829600334167 0.10290198773145676 -5.60426427487215e-10 -1.7184917933121824e-09 4.636421524484291e-10 10.27859878540039 0.73180091381073 0.025912299752235413 -5.60439139540847e-10 -1.7184917933121824e-09 4.6365486450206106e-10 2.2216696739196777 -0.7334870100021362 -0.2089199721813202 7.633330816395056e-14 0.0 -3.1805545068312735e-14 -52.8125 46.682395935058594 -59.49089813232422 17.03219985961914 -9.681329727172852 -31.88239860534668 1.0118398666381836 -27.314897537231445 4.162459373474121 -7.648088828915434e-10 -1.0491758573039078e-09 3.7176864364774076e-10 -1.3249553676430992e-09 -1.873728283641185e-09 6.271226316023615e-10 -7.648215949451753e-10 -1.0491758573039078e-09 3.7177502743013235e-10 -7.7309088706970215 5.474880218505859 -0.41731396317481995 -7.648088828915434e-10 -1.0491758573039078e-09 3.717622876209248e-10 -2.9055399894714355 0.9651829600334167 -0.10290198773145676 -7.648215949451753e-10 -1.0491758573039078e-09 3.717559315941088e-10 -10.27859878540039 0.73180091381073 -0.025912299752235413 -7.648088828915434e-10 -1.0491758573039078e-09 3.717495755672928e-10 -2.2216696739196777 -0.7334870100021362 0.2089199721813202 -0.0 0.0 -0.0 4.069089889526367 -34.51820373535156 -2.090250015258789 -1.1998398303985596 62.31680679321289 1.782099962234497 -0.2894650399684906 -25.534297943115234 -0.3849939703941345 -0.0 0.0 -0.0 -5.158239364624023 -34.9767951965332 -0.2558939456939697 1.1969200372695923 62.85909652709961 -1.9075199365615845 5.4004292488098145 -25.290000915527344 9.467039108276367
-0.07013003517154133 43.55178258214294 2.081555672362582 -2.2369000911712646 2.5569000244140625 2.415299892425537 -3.1377198696136475 4.894749641418457 3.2287797927856445 2.4766199588775635 -5.998849868774414 0.9533699154853821 -5.736959457397461 9.572050094604492 -4.451020240783691 7.081929683685303 -11.125199317932129 -7.35715913772583 -0.0 0.0 -0.0 -0.0 0.0 -0.0 1.2722218027325094e-14 -1.2722218027325094e-13 1.908332704098764e-14 46.2494010925293 40.12629699707031 51.70509338378906 -18.756399154663086 -11.523698806762695 35.74009704589844 -0.6217240691184998 -21.8169002532959 -3.2251899242401123 -3.216558408514203e-10 6.367088523084874e-10 -1.0046099369054318e-10 -5.55604728891268e-10 1.1219851714372453e-09 -1.797712950724062e-10 -3.216558408514203e-10 6.367088523084874e-10 -1.0046099369054318e-10 7.7309088706970215 5.474880218505859 0.41731396317481995 -3.216558408514203e-10 6.367215643621194e-10 -1.0046735665625306e-10 2.9055399894714355 0.9651829600334167 0.10290198773145676 -3.2164312879778834e-10 6.367088523084874e-10 -1.0046099369054318e-10 10.27859878540039 0.73180091381073 0.025912299752235413 -3.216558408514203e-10 6.367088523084874e-10 -1.004546307248333e-10 2.2216696739196777 -0.7334870100021362 -0.2089199721813202 1.2722218027325094e-14 -1.2722218027325094e-13 1.908332704098764e-14 -52.829795837402344 46.676597595214844 -59.482398986816406 17.024599075317383 -9.674789428710938 -31.866697311401367 1.0059499740600586 -27.242799758911133 4.149609565734863 -1.0825335072794928e-10 8.194634970593029e-10 3.537794501795588e-10 -1.9262710870826538e-10 1.3973957546653537e-09 6.107173655678366e-10 -1.0825335072794928e-10 8.194634970593029e-10 3.537858062063748e-10 -7.7309088706970215 5.474880218505859 -0.41731396317481995 -1.0824063173542342e-10 8.194634970593029e-10 3.537730663971672e-10 -2.9055399894714355 0.9651829600334167 -0.10290198773145676 -1.0825335072794928e-10 8.194762091129348e-10 3.5376671037035123e-10 -10.27859878540039 0.73180091381073 -0.025912299752235413 -1.0825335072794928e-10 8.194762091129348e-10 3.5376035434353525e-10 -2.2216696739196777 -0.7334870100021362 0.2089199721813202 -0.0 0.0 -0.0 4.045009613037109 -34.5625 -2.0812900066375732 -1.2101300954818726 62.45809555053711 1.7939300537109375 -0.3138429820537567 -25.596500396728516 -0.4293229877948761 -0.0 0.0 -0.0 -5.1850996017456055 -34.99659729003906 -0.22724899649620056 1.2049298286437988 62.96770095825195 -1.9173001050949097 5.439209938049316 -25.339599609375 9.522298812866211
-0.06806738703611274 43.52364903295166 2.0930148279757157 -2.229600191116333 2.565199851989746 2.39389967918396 -3.154259204864502 4.966790676116943 3.2304599285125732 2.4601097106933594 -6.015379905700684 0.9526000022888184 -5.749279975891113 9.600869178771973 -4.445089817047119 7.104279518127441 -11.20729923248291 -7.340178489685059 -0.0 0.0 -0.0 -0.0 0.0 -0.0 -0.0 -1.3994439830057603e-13 5.724998112296292e-14 46.31148910522461 40.104698181152344 51.65879440307617 -18.75860023498535 -11.526100158691406 35.744998931884766 -0.6195669174194336 -21.781299591064453 -3.2193799018859863 -4.0597869510605733e-10 1.5516399276549464e-09 -2.3973112384112483e-10 -6.983097988744191e-10 2.710137669836854e-09 -4.228038197329198e-10 -4.0597869510605733e-10 1.5516399276549464e-09 -2.397374798679408e-10 7.7309088706970215 5.474880218505859 0.41731396317481995 -4.0597869510605733e-10 1.5516399276549464e-09 -2.397374798679408e-10 2.9055399894714355 0.9651829600334167 0.10290198773145676 -4.0597869510605733e-10 1.5516399276549464e-09 -2.397374798679408e-10 10.27859878540039 0.73180091381073 0.025912299752235413 -4.059914349152649e-10 1.5516525841974271e-09 -2.3972476781430885e-10 2.2216696739196777 -0.7334870100021362 -0.2089199721813202 -0.0 -1.3994439830057603e-13 5.724998112296292e-14 -52.82309341430664 46.66990280151367 -59.506900787353516 17.017396926879883 -9.668030738830566 -31.85129737854004 1.0000097751617432 -27.169797897338867 4.13661003112793 9.159996979674068e-13 4.707093603784074e-10 1.481311462381285e-10 -3.1805545068312735e-13 8.109650728727047e-10 2.570460511108763e-10 9.159996979674068e-13 4.707093603784074e-10 1.481375022649445e-10 -7.7309088706970215 5.474880218505859 -0.41731396317481995 9.159996979674068e-13 4.707220724320393e-10 1.4812479021131253e-10 -2.9055399894714355 0.9651829600334167 -0.10290198773145676 9.032774528350274e-13 4.707220724320393e-10 1.4811842030670874e-10 -10.27859878540039 0.73180091381073 -0.025912299752235413 9.032774528350274e-13 4.707220724320393e-10 1.4811842030670874e-10 -2.2216696739196777 -0.7334870100021362 0.2089199721813202 -0.0 0.0 -0.0 4.043649673461914 -34.60320281982422 -2.0582799911499023 -1.2195498943328857 62.586700439453125 1.8049898147583008 -0.34630200266838074 -25.65289878845215 -0.48751598596572876 -0.0 0.0 -0.0 -5.21437931060791 -35.01900100708008 -0.2275329828262329 1.2128697633743286 63.07429504394531 -1.9270397424697876 5.480550289154053 -25.387798309326172 9.582408905029297
